<?xml version="1.0" encoding="UTF-8"?>
<svg width="20px" height="24px" viewBox="0 0 20 24" version="1.1" xmlns="http://www.w3.org/2000/svg" xmlns:xlink="http://www.w3.org/1999/xlink">
    <!-- Generator: Sketch 53.2 (72643) - https://sketchapp.com -->
    <title>downloadcv-icon</title>
    <desc>Created with Sketch.</desc>
    <g id="Page-1" stroke="none" stroke-width="1" fill="none" fill-rule="evenodd">
        <g id="downloadcv-icon" fill="#363636">
            <path d="M1,24 L20,24 L20,1 L19,1 L19,23 L1,23 L1,24 Z M18,0 L0,0 L0,22 L18,22 L18,0 Z M15,17 L3,17 L3,18 L15,18 L15,17 Z M15,14 L3,14 L3,15 L15,15 L15,14 Z M15,11 L3,11 L3,12 L15,12 L15,11 Z M7.652,7.137 L8.6,7.437 C8.455,7.966 8.213,8.359 7.875,8.615 C7.537,8.872 7.108,9 6.588,9 C5.945,9 5.417,8.78 5.003,8.341 C4.589,7.902 4.382,7.301 4.382,6.539 C4.382,5.733 4.59,5.107 5.006,4.661 C5.422,4.215 5.969,3.992 6.648,3.992 C7.24,3.992 7.721,4.167 8.091,4.517 C8.312,4.724 8.477,5.022 8.587,5.409 L7.619,5.64 C7.562,5.389 7.442,5.191 7.261,5.046 C7.079,4.9 6.858,4.828 6.598,4.828 C6.239,4.828 5.948,4.957 5.724,5.214 C5.501,5.472 5.389,5.889 5.389,6.466 C5.389,7.079 5.499,7.515 5.72,7.774 C5.94,8.034 6.226,8.164 6.578,8.164 C6.838,8.164 7.062,8.082 7.249,7.916 C7.436,7.751 7.571,7.491 7.652,7.137 Z M10.675,8.917 L8.944,4.075 L10.004,4.075 L11.23,7.659 L12.416,4.075 L13.453,4.075 L11.719,8.917 L10.675,8.917 L10.675,8.917 Z" id="Shape"></path>
        </g>
    </g>
</svg>